<svg xmlns="http://www.w3.org/2000/svg" xmlns:xlink="http://www.w3.org/1999/xlink" width="500" zoomAndPan="magnify" viewBox="0 0 375 374.999991" height="500" preserveAspectRatio="xMidYMid meet" version="1.0"><defs><g/><clipPath id="94e7f8ee06"><path d="M 0 79.644531 L 375 79.644531 L 375 295.644531 L 0 295.644531 Z M 0 79.644531 " clip-rule="nonzero"/></clipPath><clipPath id="b997f06bcc"><path d="M 160.679688 74.625 L 214.320312 74.625 L 214.320312 300.375 L 160.679688 300.375 Z M 160.679688 74.625 " clip-rule="nonzero"/></clipPath><clipPath id="35ad10d276"><path d="M 0.679688 0.625 L 54.320312 0.625 L 54.320312 226.375 L 0.679688 226.375 Z M 0.679688 0.625 " clip-rule="nonzero"/></clipPath><clipPath id="ef28638528"><rect x="0" width="55" y="0" height="227"/></clipPath></defs><rect x="-37.5" width="450" fill="#ffffff" y="-37.499999" height="449.999989" fill-opacity="1"/><rect x="-37.5" width="450" fill="#000000" y="-37.499999" height="449.999989" fill-opacity="1"/><g clip-path="url(#94e7f8ee06)"><path fill="#9333ea" d="M 449.753906 295.308594 L 449.753906 79.6875 L -74.765625 79.6875 L -74.765625 295.308594 Z M 441.28125 290.519531 L 441.28125 272.675781 L 431.769531 272.675781 L 431.769531 290.519531 Z M 247.621094 290.519531 L 247.621094 272.675781 L 238.109375 272.675781 L 238.109375 290.519531 Z M 26.296875 290.519531 L 26.296875 272.675781 L 16.785156 272.675781 L 16.785156 290.519531 Z M 53.960938 290.519531 L 53.960938 272.675781 L 44.453125 272.675781 L 44.453125 290.519531 Z M 81.625 290.519531 L 81.625 272.675781 L 72.117188 272.675781 L 72.117188 290.519531 Z M 109.292969 290.519531 L 109.292969 272.675781 L 99.785156 272.675781 L 99.785156 290.519531 Z M 136.957031 290.519531 L 136.957031 272.675781 L 127.449219 272.675781 L 127.449219 290.519531 Z M 164.625 290.519531 L 164.625 272.675781 L 155.113281 272.675781 L 155.113281 290.519531 Z M 192.289062 290.519531 L 192.289062 272.675781 L 182.78125 272.675781 L 182.78125 290.519531 Z M -29.035156 290.519531 L -29.035156 272.675781 L -38.542969 272.675781 L -38.542969 290.519531 Z M -1.371094 290.519531 L -1.371094 272.675781 L -10.878906 272.675781 L -10.878906 290.519531 Z M 275.285156 290.519531 L 275.285156 272.675781 L 265.777344 272.675781 L 265.777344 290.519531 Z M 302.949219 290.519531 L 302.949219 272.675781 L 293.445312 272.675781 L 293.445312 290.519531 Z M 330.617188 290.519531 L 330.617188 272.675781 L 321.109375 272.675781 L 321.109375 290.519531 Z M 358.28125 290.519531 L 358.28125 272.675781 L 348.777344 272.675781 L 348.777344 290.519531 Z M 385.953125 290.519531 L 385.953125 272.675781 L 376.441406 272.675781 L 376.441406 290.519531 Z M 413.617188 290.519531 L 413.617188 272.675781 L 404.105469 272.675781 L 404.105469 290.519531 Z M 219.957031 290.519531 L 219.957031 272.675781 L 210.445312 272.675781 L 210.445312 290.519531 Z M -56.703125 290.519531 L -56.703125 272.675781 L -66.210938 272.675781 L -66.210938 290.519531 Z M 427.203125 266.09375 C 430.933594 266.09375 434.515625 264.609375 437.15625 261.96875 C 439.796875 259.328125 441.28125 255.746094 441.28125 252.011719 L 441.28125 122.984375 C 441.28125 119.253906 439.796875 115.671875 437.15625 113.03125 C 434.515625 110.390625 430.933594 108.90625 427.203125 108.90625 L 294.898438 108.90625 C 290.367188 108.90625 286.027344 110.707031 282.820312 113.910156 C 279.621094 117.113281 277.820312 121.457031 277.820312 125.984375 L 277.820312 249.011719 C 277.820312 253.542969 279.621094 257.890625 282.820312 261.089844 C 286.027344 264.292969 290.367188 266.09375 294.898438 266.09375 Z M 252.1875 266.09375 C 256.71875 266.09375 261.0625 264.292969 264.261719 261.089844 C 267.464844 257.890625 269.265625 253.542969 269.265625 249.011719 L 269.265625 125.984375 C 269.265625 121.457031 267.464844 117.113281 264.261719 113.910156 C 261.0625 110.707031 256.71875 108.90625 252.1875 108.90625 L 122.882812 108.90625 C 118.355469 108.90625 114.011719 110.707031 110.808594 113.910156 C 107.605469 117.113281 105.804688 121.457031 105.804688 125.984375 L 105.804688 249.011719 C 105.804688 253.542969 107.605469 257.890625 110.808594 261.089844 C 114.011719 264.292969 118.355469 266.09375 122.882812 266.09375 Z M 80.171875 266.09375 C 84.699219 266.09375 89.042969 264.292969 92.246094 261.089844 C 95.449219 257.890625 97.25 253.542969 97.25 249.011719 L 97.25 125.984375 C 97.25 121.457031 95.449219 117.113281 92.246094 113.910156 C 89.042969 110.707031 84.699219 108.90625 80.171875 108.90625 L -52.132812 108.90625 C -55.867188 108.90625 -59.445312 110.390625 -62.085938 113.03125 C -64.726562 115.671875 -66.210938 119.253906 -66.210938 122.984375 L -66.210938 252.011719 C -66.210938 255.746094 -64.726562 259.328125 -62.085938 261.96875 C -59.445312 264.609375 -55.867188 266.09375 -52.132812 266.09375 Z M -56.703125 103.21875 L -56.703125 85.375 L -66.210938 85.375 L -66.210938 103.21875 Z M 219.957031 103.21875 L 219.957031 85.375 L 210.445312 85.375 L 210.445312 103.21875 Z M 247.621094 103.21875 L 247.621094 85.375 L 238.109375 85.375 L 238.109375 103.21875 Z M 109.292969 103.21875 L 109.292969 85.375 L 99.785156 85.375 L 99.785156 103.21875 Z M 136.957031 103.21875 L 136.957031 85.375 L 127.449219 85.375 L 127.449219 103.21875 Z M 164.625 103.21875 L 164.625 85.375 L 155.113281 85.375 L 155.113281 103.21875 Z M 192.289062 103.21875 L 192.289062 85.375 L 182.78125 85.375 L 182.78125 103.21875 Z M 26.296875 103.21875 L 26.296875 85.375 L 16.785156 85.375 L 16.785156 103.21875 Z M 275.285156 103.21875 L 275.285156 85.375 L 265.777344 85.375 L 265.777344 103.21875 Z M 302.949219 103.21875 L 302.949219 85.375 L 293.445312 85.375 L 293.445312 103.21875 Z M 330.617188 103.21875 L 330.617188 85.375 L 321.109375 85.375 L 321.109375 103.21875 Z M 358.28125 103.21875 L 358.28125 85.375 L 348.777344 85.375 L 348.777344 103.21875 Z M 385.953125 103.21875 L 385.953125 85.375 L 376.441406 85.375 L 376.441406 103.21875 Z M 413.617188 103.21875 L 413.617188 85.375 L 404.105469 85.375 L 404.105469 103.21875 Z M 441.28125 103.21875 L 441.28125 85.375 L 431.769531 85.375 L 431.769531 103.21875 Z M 53.960938 103.21875 L 53.960938 85.375 L 44.453125 85.375 L 44.453125 103.21875 Z M 81.625 103.21875 L 81.625 85.375 L 72.117188 85.375 L 72.117188 103.21875 Z M -1.371094 103.21875 L -1.371094 85.375 L -10.878906 85.375 L -10.878906 103.21875 Z M -29.035156 103.21875 L -29.035156 85.375 L -38.542969 85.375 L -38.542969 103.21875 Z M -29.035156 103.21875 " fill-opacity="1" fill-rule="evenodd"/></g><g clip-path="url(#b997f06bcc)"><g transform="matrix(1, 0, 0, 1, 160, 74)"><g clip-path="url(#ef28638528)"><g clip-path="url(#35ad10d276)"><path fill="#030712" d="M 0.679688 0.625 L 54.320312 0.625 L 54.320312 226.292969 L 0.679688 226.292969 Z M 0.679688 0.625 " fill-opacity="1" fill-rule="nonzero"/></g></g></g></g><g fill="#ffffff" fill-opacity="1"><g transform="translate(181.632854, 190.874481)"><g><path d="M 0.28125 -2.59375 L 4.09375 -4.890625 L 4.09375 -3.609375 L 2.046875 -2.328125 L 4.09375 -1.109375 L 4.09375 0.25 L 0.28125 -2 Z M 0.28125 -2.59375 "/></g></g></g><g fill="#ffffff" fill-opacity="1"><g transform="translate(186.267882, 190.874481)"><g><path d="M 0.71875 1.171875 L 0.71875 -6.96875 L 1.734375 -6.96875 L 1.734375 1.171875 Z M 0.71875 1.171875 "/></g></g></g><g fill="#ffffff" fill-opacity="1"><g transform="translate(188.715899, 190.874481)"><g><path d="M 4.34375 -2 L 0.546875 0.25 L 0.546875 -1.109375 L 2.59375 -2.328125 L 0.546875 -3.609375 L 0.546875 -4.890625 L 4.34375 -2.59375 Z M 4.34375 -2 "/></g></g></g></svg>